<svg id="svg" width="20" height="20" viewBox="0 0 20 20" fill="none" xmlns="http://www.w3.org/2000/svg" data-trigger="icon"><path d="M10.0246 15.8333C9.49419 15.8332 8.98556 15.6287 8.61058 15.2647L0.610577 7.50285C0.419556 7.32385 0.267192 7.10973 0.162374 6.87299C0.0575557 6.63624 0.00238315 6.38161 7.55141e-05 6.12396C-0.00223212 5.8663 0.0483709 5.61078 0.148933 5.37231C0.249494 5.13383 0.398001 4.91717 0.585786 4.73498C0.773571 4.55278 0.996875 4.4087 1.24267 4.31113C1.48846 4.21356 1.75182 4.16446 2.01738 4.1667C2.28294 4.16894 2.54538 4.22247 2.78938 4.32417C3.03339 4.42586 3.25408 4.5737 3.43858 4.75903L10.0246 11.149L16.6106 4.75903C16.9878 4.40556 17.493 4.20997 18.0174 4.21439C18.5418 4.21881 19.0434 4.42289 19.4142 4.78267C19.785 5.14245 19.9954 5.62914 19.9999 6.13793C20.0045 6.64671 19.8029 7.13688 19.4386 7.50285L11.4386 15.2647C11.0636 15.6287 10.555 15.8332 10.0246 15.8333Z" fill="currentColor"></path></svg>